# xmcd
#
# Track frame offsets:
#	150
#	15191
#	29769
#	42503
#	57336
#	73134
#	89388
#	98442
#	111663
#	120197
#	137021
#	150846
#	162757
#	174064
#	190139
#	205164
#	216582
#	235423
#	246313
#	259058
#
# Disc length: 3613 seconds
#
# Revision: 0
# Processed by: cddbd v1.5.2PL0 Copyright (c) Steve Scherf et al.
# Submitted via: audiograbber 1.83.01
#
DISCID=100e1b14
DTITLE=Vlckovanka - Dubovanka - Buckovanka - Dychovka krasna, dychovka moja 3
DYEAR=2005
DGENRE=Folklore
TTITLE0=Vlckovanka - Sokol sokolicek
TTITLE1=Vlckovanka - Hrusovske hajiky
TTITLE2=Vlckovanka - Ten trenciansky zamecek
TTITLE3=Vlckovanka - Zalet sokol
TTITLE4=Vlckovanka - Tak nekonecne krasna
TTITLE5=Vlckovanka - Mesiacik na nebi
TTITLE6=Vlckovanka - Nize Linca
TTITLE7=Vlckovanka - Na tom nasom natonicku
TTITLE8=Vlckovanka - Jahody
TTITLE9=Vlckovanka - Za Kalnicu tri doliny
TTITLE10=Dubovanka - Zalibily, zalibily
TTITLE11=Dubovanka - Topole, topole
TTITLE12=Dubovanka - Mal som sedem grajciarov
TTITLE13=Dubovanka - Krasna pasacka
TTITLE14=Dubovanka - Sliepocka
TTITLE15=Buckovanka - Tam pri Trencine
TTITLE16=Buckovanka - Na tom vrsku
TTITLE17=Buckovanka - Ma mila
TTITLE18=Buckovanka - Ked sme tu rolku orali
TTITLE19=Buckovanka - Krcmarik
EXTD=
EXTT0=
EXTT1=
EXTT2=
EXTT3=
EXTT4=
EXTT5=
EXTT6=
EXTT7=
EXTT8=
EXTT9=
EXTT10=
EXTT11=
EXTT12=
EXTT13=
EXTT14=
EXTT15=
EXTT16=
EXTT17=
EXTT18=
EXTT19=
PLAYORDER=
